<svg id="Calque_1" data-name="Calque 1" xmlns="http://www.w3.org/2000/svg" viewBox="0 0 1476.22 572.98"><defs><style>.cls-1{fill:#1d2441;}.cls-2{fill:#eb5a5b;}</style></defs><path class="cls-1" d="M96,235.28v28.65a3.38,3.38,0,0,1-3.58,3.58H40.83v28.65H89.3a3.38,3.38,0,0,1,3.58,3.58V328.4A3.39,3.39,0,0,1,89.3,332H40.83v63.27a3.38,3.38,0,0,1-3.58,3.58H3.58A3.38,3.38,0,0,1,0,395.25v-160a3.39,3.39,0,0,1,3.58-3.59H92.4A3.39,3.39,0,0,1,96,235.28Z"/><path class="cls-1" d="M115.45,316a86.2,86.2,0,1,1,172.39,0c0,47.75-38.92,86-86.19,86S115.45,363.73,115.45,316Zm130.85,0c0-26.26-19.34-46.32-44.65-46.32S157,289.72,157,316c0,26,19.34,45.84,44.65,45.84S246.3,342,246.3,316Z"/><path class="cls-1" d="M431.13,398.83H395.56a4.54,4.54,0,0,1-4.3-2.39l-33.43-52.52h-6.44v51.33a3.39,3.39,0,0,1-3.59,3.58H314.14a3.38,3.38,0,0,1-3.58-3.58v-160a3.39,3.39,0,0,1,3.58-3.59h52.05c40.83,0,63.27,22.93,63.27,56.11,0,23.64-11.22,42-32.47,50.62l36.53,56.11C435.19,397.16,434,398.83,431.13,398.83ZM351.39,308.1h14.08c11.46,0,25.07-4.3,25.07-20.3,0-16.23-13.61-20.29-25.07-20.29H351.39Z"/><path class="cls-1" d="M796.19,366.6v28.65a3.38,3.38,0,0,1-3.58,3.58H706.18a3.38,3.38,0,0,1-3.58-3.58v-160a3.39,3.39,0,0,1,3.58-3.59h33.66a3.4,3.4,0,0,1,3.59,3.59V363h49.18A3.38,3.38,0,0,1,796.19,366.6Z"/><path class="cls-1" d="M822.73,231.69H856.4a3.39,3.39,0,0,1,3.58,3.59v160a3.39,3.39,0,0,1-3.58,3.58H822.73a3.38,3.38,0,0,1-3.58-3.58v-160A3.39,3.39,0,0,1,822.73,231.69Z"/><path class="cls-1" d="M1070.37,235.28v160a3.38,3.38,0,0,1-3.58,3.58h-33.67a3.38,3.38,0,0,1-3.58-3.58V308.82l-2.86,11L998.5,395.73a4.89,4.89,0,0,1-4.53,3.1H964.83a4.58,4.58,0,0,1-4.29-3.1L932.36,319.8l-2.86-11v86.43a3.38,3.38,0,0,1-3.58,3.58H892.25a3.38,3.38,0,0,1-3.58-3.58v-160a3.39,3.39,0,0,1,3.58-3.59h36.29c1.91,0,3.58.72,4.3,2.39L979.4,351.56l46.32-117.48c.72-1.67,2.39-2.39,4.3-2.39h36.77A3.39,3.39,0,0,1,1070.37,235.28Z"/><path class="cls-1" d="M1243.42,398.83h-35.1a3.82,3.82,0,0,1-4.06-2.86l-7.4-23.4h-55.63l-7.4,23.4a3.82,3.82,0,0,1-4.06,2.86h-35.1c-2.63,0-3.82-1.67-2.87-4.06l57.55-160.21a4.07,4.07,0,0,1,4.06-2.87H1184a4.7,4.7,0,0,1,4.54,2.87l57.78,160.21C1247.24,397.16,1246.05,398.83,1243.42,398.83Zm-57.3-59.21-17.19-54-17.2,54Z"/><path class="cls-1" d="M1355.17,235.28v28.65a3.39,3.39,0,0,1-3.59,3.58h-35.09V395.25a3.39,3.39,0,0,1-3.59,3.58h-33.66a3.38,3.38,0,0,1-3.58-3.58V267.51h-35.1a3.38,3.38,0,0,1-3.58-3.58V235.28a3.39,3.39,0,0,1,3.58-3.59h111A3.4,3.4,0,0,1,1355.17,235.28Z"/><path class="cls-1" d="M1476.49,366.6v28.65a3.38,3.38,0,0,1-3.58,3.58H1381.7a3.38,3.38,0,0,1-3.58-3.58v-160a3.39,3.39,0,0,1,3.58-3.59h91a3.4,3.4,0,0,1,3.59,3.59v28.65a3.39,3.39,0,0,1-3.59,3.58H1419v28.65h50.38a3.38,3.38,0,0,1,3.58,3.58V328.4a3.39,3.39,0,0,1-3.58,3.58H1419v31h54A3.38,3.38,0,0,1,1476.49,366.6Z"/><path class="cls-1" d="M570.16,324.51a45.09,45.09,0,0,0,10.85,22,46.11,46.11,0,0,0,43.91,14.26,45.19,45.19,0,0,0,21.69-11.4,3.52,3.52,0,0,1,4.5-.27l27.07,19.66a3.59,3.59,0,0,1,.52,5.32,86.14,86.14,0,0,1-29.17,20.79c-39.58,17.28-86.62,2-108.48-35.25a86,86,0,0,1-11.37-34,3.57,3.57,0,0,1,3.54-4h33.46A3.53,3.53,0,0,1,570.16,324.51Z"/><path class="cls-1" d="M570.16,307.21a45.09,45.09,0,0,1,10.85-22A46.13,46.13,0,0,1,624.92,271a45.19,45.19,0,0,1,21.69,11.4,3.54,3.54,0,0,0,4.5.28L678.18,263a3.59,3.59,0,0,0,.52-5.32,86.27,86.27,0,0,0-29.17-20.79c-39.58-17.27-86.62-2-108.48,35.25a86,86,0,0,0-11.37,34,3.57,3.57,0,0,0,3.54,4h33.46A3.53,3.53,0,0,0,570.16,307.21Z"/><circle class="cls-2" cx="578.01" cy="201.31" r="28.69"/><path class="cls-1" d="M99.19,3.07V146.53a2.91,2.91,0,0,1-3.07,3.08h-6c-1.84,0-2.87-1.23-3.07-3.08l-.82-13.73C78.08,143.87,65.38,151,49.39,151,20.49,151,0,127.68,0,99.6,0,70.29,20.49,47.14,49.39,47.14c16.4,0,29.1,7.58,37.09,19.06l.41-9V3.07A2.91,2.91,0,0,1,90,0h6.15A2.9,2.9,0,0,1,99.19,3.07ZM88.12,99.4c0-22.34-16.19-41.2-37.91-41.2-22.13,0-38.32,17.63-38.32,41.2,0,22.54,16.19,40.57,38.32,40.57C71.93,140,88.12,121.94,88.12,99.4Z"/><path class="cls-1" d="M219.09,94.68c0,6.56-.82,9.63-5.74,9.63H135.27c2.25,19.68,17,35.05,39.76,35.05,13.52,0,22.54-4.51,28.89-10.25,1.44-1.23,2.67-2.05,4.31-.61l2.66,2.46c1.64,1.64,1.85,3.07.21,4.71-9.43,9.84-22.55,15.37-37.51,15.37-29.51,0-50.41-23.16-50.41-52s20.08-51.85,49-51.85C200.85,47.14,219.09,70.09,219.09,94.68Zm-83.82-.61h73C207.61,74.8,193.06,58.41,172,58.41,151.25,58.41,137.32,74,135.27,94.07Z"/><path class="cls-1" d="M308.86,124.19c0,16.4-16.6,27.47-33.81,27.47a49.2,49.2,0,0,1-36.89-16.81c-1.23-1.43-1.44-2.66-.41-3.89l3.69-4.1c1.43-1.85,2.46-1.44,4.3.41,4.3,4.51,15.16,13.32,29.1,13.32,13.32,0,21.93-6.35,21.93-16.4,0-26.23-56.77-17-56.77-50.62,0-15.37,13.73-26.64,31.77-26.64,10,0,23.15,5.33,31.56,15.17,1.23,1.43.82,2.87-.21,4.3l-2.46,2.87c-1.23,1.64-2.87,1.44-4.5-.2-8-7.38-14.76-11.28-25-11.28-7.79,0-19.47,3.49-19.47,15.78C251.68,98,308.86,88.94,308.86,124.19Z"/><path class="cls-1" d="M331.82,15.37A8.24,8.24,0,0,1,340.43,7a8.14,8.14,0,0,1,8.19,8.4c0,4.92-3.48,8.61-8.19,8.61A8.29,8.29,0,0,1,331.82,15.37Zm5.33,33.82h6.15a2.9,2.9,0,0,1,3.07,3.07v94.27a2.91,2.91,0,0,1-3.07,3.08h-6.15a2.91,2.91,0,0,1-3.08-3.08V52.26A2.91,2.91,0,0,1,337.15,49.19Z"/><path class="cls-1" d="M471.59,52.26v95.09c0,31-27,42.83-50.21,42.83-15.17,0-27.87-3.48-37.09-9.22a3,3,0,0,1-1-4.3l1.85-3.49A2.83,2.83,0,0,1,389.2,172a68.36,68.36,0,0,0,31.36,7c19.06,0,38.73-8.6,38.73-30.53V130.55C451.3,142.43,438.6,150,422.2,150c-28.9,0-49.39-23.16-49.39-51.44S393.3,47.14,422.2,47.14c16.4,0,29.1,7.58,36.89,19.06l.82-13.94c.2-1.84,1.23-3.07,3.07-3.07h5.54A2.9,2.9,0,0,1,471.59,52.26ZM460.32,106l.61-7.58-.2-5.12C458.27,74,443.1,58.2,423,58.2c-22.14,0-38.32,17.63-38.32,40.17,0,22.75,16.18,40.37,38.32,40.37C442.28,138.74,457,124.19,460.32,106Z"/><path class="cls-1" d="M580.83,86.28v60.25a2.91,2.91,0,0,1-3.07,3.08h-6.15a2.91,2.91,0,0,1-3.08-3.08V86.28c0-18.24-8.81-28.69-24.38-28.69-21.11,0-33,20.9-33,25v63.94a2.91,2.91,0,0,1-3.07,3.08h-6.15a2.91,2.91,0,0,1-3.08-3.08V52.26a2.91,2.91,0,0,1,3.08-3.07h5.33c1.84,0,2.87,1.23,3.07,3.07l.82,14.35v.2c7.58-11.07,19.27-19.88,34.64-19.88C567.1,46.93,580.83,59.43,580.83,86.28Z"/><path class="cls-1" d="M700.73,94.68c0,6.56-.82,9.63-5.74,9.63H616.91c2.25,19.68,17,35.05,39.75,35.05,13.53,0,22.55-4.51,28.9-10.25,1.44-1.23,2.67-2.05,4.31-.61l2.66,2.46c1.64,1.64,1.84,3.07.2,4.71-9.42,9.84-22.54,15.37-37.5,15.37-29.51,0-50.42-23.16-50.42-52s20.09-51.85,49-51.85C682.49,47.14,700.73,70.09,700.73,94.68Zm-83.82-.61h73c-.62-19.27-15.17-35.66-36.28-35.66C632.89,58.41,619,74,616.91,94.07Z"/><path class="cls-1" d="M773.69,52.87,771.23,58c-.82,1.43-1.84,1.64-3.48,1.23a28.73,28.73,0,0,0-8-1A22.39,22.39,0,0,0,737,80.75v65.78a2.91,2.91,0,0,1-3.08,3.08h-6.14a2.91,2.91,0,0,1-3.08-3.08V52.26a2.91,2.91,0,0,1,3.08-3.07h5.12c1.84,0,2.87,1.23,3.07,3.07l.82,8.4c5.74-8.2,13.94-13.73,24.6-13.73,4.71,0,9,1,11.88,2.87C774.31,50.42,774.51,51.24,773.69,52.87Z"/><path class="cls-1" d="M860,124.19c0,16.4-16.6,27.47-33.82,27.47a49.2,49.2,0,0,1-36.89-16.81c-1.23-1.43-1.43-2.66-.41-3.89l3.69-4.1c1.43-1.85,2.46-1.44,4.3.41,4.31,4.51,15.17,13.32,29.11,13.32,13.32,0,21.92-6.35,21.92-16.4,0-26.23-56.76-17-56.76-50.62,0-15.37,13.73-26.64,31.76-26.64,10,0,23.16,5.33,31.56,15.17,1.23,1.43.82,2.87-.2,4.3l-2.46,2.87c-1.23,1.64-2.87,1.44-4.51-.2-8-7.38-14.76-11.28-25-11.28-7.79,0-19.47,3.49-19.47,15.78C802.8,98,860,88.94,860,124.19Z"/><path class="cls-2" d="M971.44,537.4c0,18.92-18.16,35.39-41.94,35.39-18,0-33.14-7.67-40.26-19.66-.94-1.68-.75-2.62.75-3.74l3.93-3.37c1.31-1.13,2.62-.94,3.75.37,7.67,7.87,17.22,15.73,31.45,15.73,18.73,0,30.72-11.8,30.72-25.65,0-33.9-68.17-24-68.17-66.1,0-18.35,15.55-32.4,37.08-32.4,13.48,0,27.53,6.74,36.33,17.6,1.12,1.31,1.12,2.44-.38,3.94l-3.18,2.81c-1.31,1.31-2.62,1.49-3.93.18-8.24-8.8-17-14-29-14-14.23,0-25.84,7.67-25.84,22.09C902.72,503.51,971.44,493.21,971.44,537.4Z"/><path class="cls-2" d="M1031.73,481.6v4.12a2.65,2.65,0,0,1-2.81,2.81h-15v79.21a2.66,2.66,0,0,1-2.81,2.81h-5.62a2.65,2.65,0,0,1-2.8-2.81V488.53h-15a2.65,2.65,0,0,1-2.8-2.81V481.6a2.65,2.65,0,0,1,2.8-2.81h15V453.51a2.65,2.65,0,0,1,2.8-2.81h5.62a2.66,2.66,0,0,1,2.81,2.81v25.28h15A2.66,2.66,0,0,1,1031.73,481.6Z"/><path class="cls-2" d="M1125.91,481.6v86.14a2.66,2.66,0,0,1-2.81,2.81h-4.87c-1.68,0-2.62-1.13-2.81-2.81l-.75-11.42c-6.36,9.36-16.1,16.66-30,16.66-21,0-33.71-11.8-33.71-36.33v-55a2.66,2.66,0,0,1,2.81-2.81h5.62a2.66,2.66,0,0,1,2.81,2.81v55c0,16.67,8.23,26.78,23.21,26.78,18.73,0,29.21-18.35,29.21-24V481.6a2.66,2.66,0,0,1,2.81-2.81h5.62A2.66,2.66,0,0,1,1125.91,481.6Z"/><path class="cls-2" d="M1238.44,436.66V567.74a2.66,2.66,0,0,1-2.81,2.81h-5.43c-1.68,0-2.62-1.13-2.81-2.81l-.75-12.55c-7.49,10.11-19.1,16.67-33.7,16.67-26.4,0-45.13-21.35-45.13-47,0-26.78,18.73-47.94,45.13-47.94,15,0,26.59,6.93,33.89,17.41l.38-8.23V436.66a2.65,2.65,0,0,1,2.8-2.81h5.62A2.65,2.65,0,0,1,1238.44,436.66Zm-10.11,88c0-20.41-14.8-37.64-34.64-37.64-20.23,0-35,16.11-35,37.64,0,20.6,14.79,37.07,35,37.07C1213.53,561.74,1228.33,545.27,1228.33,524.67Z"/><path class="cls-2" d="M1264.27,447.9a7.52,7.52,0,0,1,7.86-7.68,7.44,7.44,0,0,1,7.49,7.68c0,4.49-3.18,7.86-7.49,7.86A7.57,7.57,0,0,1,1264.27,447.9Zm4.87,30.89h5.62a2.65,2.65,0,0,1,2.8,2.81v86.14a2.65,2.65,0,0,1-2.8,2.81h-5.62a2.66,2.66,0,0,1-2.81-2.81V481.6A2.66,2.66,0,0,1,1269.14,478.79Z"/><path class="cls-2" d="M1301.71,524.67c0-27,20-47.94,46.26-47.94s46.06,21,46.06,47.94c0,26.78-19.85,47.75-46.06,47.75S1301.71,551.45,1301.71,524.67Zm81.65,0c0-21.91-15.54-37.82-35.39-37.82-20,0-35.39,15.91-35.39,37.82,0,21.72,15.35,37.64,35.39,37.64C1367.82,562.31,1383.36,546.39,1383.36,524.67Z"/><path class="cls-2" d="M1476.22,547.33c0,15-15.16,25.09-30.89,25.09a45,45,0,0,1-33.71-15.36c-1.12-1.31-1.31-2.43-.37-3.55l3.37-3.75c1.31-1.68,2.25-1.31,3.93.38,3.93,4.12,13.86,12.17,26.59,12.17,12.17,0,20-5.81,20-15,0-24-51.87-15.54-51.87-46.25,0-14.05,12.54-24.35,29-24.35,9.18,0,21.16,4.87,28.84,13.86,1.12,1.31.75,2.62-.19,3.93l-2.25,2.62c-1.12,1.5-2.62,1.31-4.12-.18-7.3-6.74-13.48-10.3-22.84-10.3-7.12,0-17.79,3.18-17.79,14.42C1424,523.36,1476.22,515.12,1476.22,547.33Z"/></svg>