<svg id="Calque_1" data-name="Calque 1" xmlns="http://www.w3.org/2000/svg" viewBox="0 0 896.84 897.09"><defs><style>.cls-1{fill:#fff;}.cls-2{fill:#1d2441;}.cls-3{fill:#06a2be;}.cls-4{fill:#eb5a5b;}</style></defs><circle class="cls-1" cx="448.54" cy="448.54" r="448.54"/><path class="cls-2" d="M497.8,461a98.8,98.8,0,0,1,47.53-25,101,101,0,0,1,96.15,31.25,98.81,98.81,0,0,1,23.74,48.12,7.73,7.73,0,0,0,7.62,6.28h73.28a7.83,7.83,0,0,0,7.75-8.75A188.47,188.47,0,0,0,729,438.56c-47.88-81.55-150.89-115-237.56-77.19a188.6,188.6,0,0,0-63.87,45.54,7.83,7.83,0,0,0,1.14,11.63L488,461.62A7.74,7.74,0,0,0,497.8,461Z"/><circle class="cls-3" cx="648.03" cy="283.49" r="62.83"/><path class="cls-2" d="M399.15,436.07a98.75,98.75,0,0,1-47.53,25,101,101,0,0,1-96.15-31.26,98.77,98.77,0,0,1-23.74-48.12,7.73,7.73,0,0,0-7.62-6.27H150.83a7.83,7.83,0,0,0-7.75,8.75A188.47,188.47,0,0,0,168,458.53c47.88,81.54,150.89,115,237.56,77.18a188.58,188.58,0,0,0,63.87-45.53,7.84,7.84,0,0,0-1.14-11.64L409,435.47A7.74,7.74,0,0,0,399.15,436.07Z"/><circle class="cls-4" cx="248.92" cy="613.6" r="62.83"/><path class="cls-2" d="M196.44,319.23c0,17.11-11.44,31-32.54,31H144.4a1.25,1.25,0,0,1-1.33-1.33v-59.4a1.25,1.25,0,0,1,1.33-1.33h19.5C185,288.2,196.44,302,196.44,319.23Zm-15.34,0c0-11.44-5.76-17.73-17.2-17.73h-5.67V337h5.67C175.34,337,181.1,330.58,181.1,319.23Z"/><path class="cls-2" d="M241.93,289.53v10.64a1.25,1.25,0,0,1-1.33,1.33H221.45v10.64h18a1.25,1.25,0,0,1,1.33,1.33v10.64a1.25,1.25,0,0,1-1.33,1.33h-18v23.49a1.25,1.25,0,0,1-1.33,1.33h-12.5a1.25,1.25,0,0,1-1.33-1.33v-59.4a1.25,1.25,0,0,1,1.33-1.33h33A1.25,1.25,0,0,1,241.93,289.53Z"/><path class="cls-2" d="M304.53,340.33a1.29,1.29,0,0,1,0,1.87,30.07,30.07,0,0,1-22.07,9.22,32,32,0,1,1,0-63.93,29.73,29.73,0,0,1,22.07,9.22,1.28,1.28,0,0,1,0,1.86l-7.71,8.34A1.21,1.21,0,0,1,295,307a18.84,18.84,0,0,0-12.68-4.7c-9.31,0-16.49,7.36-16.49,17.2,0,9.66,7.18,17,16.49,17a18.41,18.41,0,0,0,12.68-4.7,1.22,1.22,0,0,1,1.86.18Z"/><path class="cls-2" d="M507.91,594.34c0,10.2-9.49,17.47-20.48,17.47-8.78,0-16.31-4-19.86-9.49a1.19,1.19,0,0,1,.26-1.77l3.29-3.37a1.21,1.21,0,0,1,1.86.08c3.9,3.73,8.24,6.83,14.45,6.83,7.36,0,12.32-4.43,12.32-10.11,0-13.92-30.85-9.75-30.85-29.79,0-9.57,8.07-16.22,18.26-16.22a23.84,23.84,0,0,1,17.91,8.33c.62.62.62,1.15,0,1.86l-2.92,3.2c-.62.7-1.24.79-1.86.17-4.08-3.81-7.9-5.94-13-5.94-5.94,0-10.37,3.28-10.37,8.69C476.88,577.94,507.91,573.24,507.91,594.34Z"/><path class="cls-2" d="M538.77,568.63v4a1.26,1.26,0,0,1-1.33,1.33h-7.09v35.46a1.25,1.25,0,0,1-1.33,1.33H523.7a1.25,1.25,0,0,1-1.33-1.33V574h-7.1a1.27,1.27,0,0,1-1.33-1.33v-4a1.26,1.26,0,0,1,1.33-1.33h7.1v-12A1.25,1.25,0,0,1,523.7,554H529a1.25,1.25,0,0,1,1.33,1.33v12h7.09A1.25,1.25,0,0,1,538.77,568.63Z"/><path class="cls-2" d="M585.23,568.63v40.78a1.25,1.25,0,0,1-1.33,1.33h-5a1.3,1.3,0,0,1-1.33-1.33l-.36-5.23c-3,4.43-7.53,7.71-13.65,7.71-9.84,0-16.14-6.11-16.14-17.73V568.63a1.25,1.25,0,0,1,1.33-1.33h5.32a1.25,1.25,0,0,1,1.33,1.33v24.65c0,7.62,4,11.43,9.84,11.43,7.81,0,12-7.27,12-10.11v-26a1.25,1.25,0,0,1,1.33-1.33h5.32A1.25,1.25,0,0,1,585.23,568.63Z"/><path class="cls-2" d="M639.06,547.35v62.06a1.26,1.26,0,0,1-1.33,1.33H633a1.3,1.3,0,0,1-1.33-1.33l-.45-5.23a17.84,17.84,0,0,1-14.8,7.18c-12.33,0-21.2-10-21.2-22.25,0-12.68,8.87-22.7,21.2-22.7a17.83,17.83,0,0,1,14.63,7.27V547.35a1.25,1.25,0,0,1,1.33-1.33h5.32A1.26,1.26,0,0,1,639.06,547.35ZM631.43,589c0-8.42-5.94-15.34-14.19-15.34s-14.36,6.47-14.36,15.34c0,8.51,6.12,15.07,14.36,15.07S631.43,597.53,631.43,589Z"/><path class="cls-2" d="M650.76,552.67a4.79,4.79,0,1,1,4.79,4.78A4.74,4.74,0,0,1,650.76,552.67Zm2.13,14.63h5.32a1.25,1.25,0,0,1,1.33,1.33v40.78a1.25,1.25,0,0,1-1.33,1.33h-5.32a1.25,1.25,0,0,1-1.33-1.33V568.63A1.25,1.25,0,0,1,652.89,567.3Z"/><path class="cls-2" d="M670.36,589c0-12.77,9.66-22.7,22.08-22.7s22.16,9.93,22.16,22.7-9.66,22.61-22.16,22.61S670.36,601.7,670.36,589Zm36.53,0c0-9-6.3-15.43-14.45-15.43S678,580.06,678,589s6.39,15.34,14.46,15.34S706.89,597.89,706.89,589Z"/><path class="cls-2" d="M754.06,599.13c0,7.71-7.8,12.5-15.43,12.5a21.59,21.59,0,0,1-16.22-7.27,1.17,1.17,0,0,1-.09-1.69l2.3-3.1c.62-.71,1.16-.53,2,.09,2.58,2.13,6.83,5.05,11.8,5.05,4.52,0,7.89-2,7.89-5.67,0-9.49-23-5.94-23-20.48,0-7.36,6.47-12.24,14.27-12.24a19.41,19.41,0,0,1,14.19,6.56,1.37,1.37,0,0,1-.09,1.86l-2,2.57c-.53.71-1.24.54-1.95-.08-3.46-2.75-6-4.26-9.84-4.26-3.11,0-6.92,1.51-6.92,5.59C730.83,587.6,754.06,583.61,754.06,599.13Z"/></svg>